<svg xmlns="http://www.w3.org/2000/svg" xmlns:xlink="http://www.w3.org/1999/xlink" width="500" zoomAndPan="magnify" viewBox="0 0 375 374.999991" height="500" preserveAspectRatio="xMidYMid meet" version="1.0"><defs><clipPath id="9965160048"><path d="M 114.90625 114.90625 L 260.40625 114.90625 L 260.40625 260.40625 L 114.90625 260.40625 Z M 114.90625 114.90625 " clip-rule="nonzero"/></clipPath></defs><path fill="#ffffff" d="M 185.816406 138.335938 L 185.816406 126.992188 C 185.816406 126.035156 186.59375 125.257812 187.558594 125.257812 L 187.761719 125.257812 C 188.726562 125.257812 189.503906 126.035156 189.503906 126.992188 L 189.503906 138.335938 C 189.503906 139.292969 188.726562 140.078125 187.761719 140.078125 L 187.558594 140.078125 C 186.59375 140.078125 185.816406 139.292969 185.816406 138.335938 " fill-opacity="1" fill-rule="nonzero"/><path fill="#ffffff" d="M 190.574219 157.234375 L 184.746094 157.226562 L 184.753906 150.933594 L 190.574219 150.933594 Z M 193.964844 159.074219 C 193.964844 159.066406 193.964844 159.066406 193.964844 159.066406 L 193.964844 149.101562 C 193.964844 148.089844 193.210938 147.269531 192.269531 147.269531 L 183.164062 147.269531 C 183.132812 147.261719 183.097656 147.261719 183.058594 147.261719 C 182.792969 147.261719 182.539062 147.328125 182.3125 147.441406 C 181.746094 147.742188 181.355469 148.367188 181.355469 149.101562 C 181.355469 149.160156 181.355469 149.214844 181.363281 149.273438 L 181.355469 159.058594 C 181.347656 160.074219 182.109375 160.890625 183.042969 160.898438 L 192.269531 160.90625 C 193.203125 160.90625 193.964844 160.082031 193.964844 159.074219 " fill-opacity="1" fill-rule="nonzero"/><path fill="#ffffff" d="M 185.816406 181.167969 L 185.816406 169.828125 C 185.816406 168.871094 186.59375 168.089844 187.558594 168.089844 L 187.761719 168.089844 C 188.726562 168.089844 189.503906 168.871094 189.503906 169.828125 L 189.503906 181.167969 C 189.503906 182.132812 188.726562 182.90625 187.761719 182.90625 L 187.558594 182.90625 C 186.59375 182.90625 185.816406 182.132812 185.816406 181.167969 " fill-opacity="1" fill-rule="nonzero"/><path fill="#ffffff" d="M 185.816406 224.003906 L 185.816406 212.667969 C 185.816406 211.703125 186.59375 210.925781 187.558594 210.925781 L 187.761719 210.925781 C 188.726562 210.925781 189.503906 211.703125 189.503906 212.667969 L 189.503906 224.003906 C 189.503906 224.96875 188.726562 225.746094 187.761719 225.746094 L 187.558594 225.746094 C 186.59375 225.746094 185.816406 224.96875 185.816406 224.003906 " fill-opacity="1" fill-rule="nonzero"/><path fill="#ffffff" d="M 171.878906 135.230469 L 166.046875 135.222656 L 166.054688 128.929688 L 171.878906 128.929688 Z M 175.273438 137.0625 L 175.273438 127.089844 C 175.273438 126.078125 174.511719 125.257812 173.574219 125.257812 L 164.46875 125.257812 C 164.433594 125.257812 164.394531 125.257812 164.355469 125.257812 C 164.09375 125.257812 163.835938 125.316406 163.617188 125.4375 C 163.046875 125.734375 162.652344 126.367188 162.652344 127.089844 C 162.652344 127.148438 162.652344 127.210938 162.660156 127.261719 L 162.652344 137.054688 C 162.652344 138.066406 163.40625 138.886719 164.347656 138.886719 L 173.566406 138.894531 C 174.511719 138.894531 175.273438 138.070312 175.273438 137.0625 " fill-opacity="1" fill-rule="nonzero"/><path fill="#ffffff" d="M 171.878906 222.074219 L 166.046875 222.074219 L 166.054688 215.773438 L 171.878906 215.773438 Z M 175.273438 223.914062 C 175.273438 223.914062 175.273438 223.914062 175.273438 223.90625 L 175.273438 213.941406 C 175.273438 212.929688 174.511719 212.109375 173.574219 212.109375 L 164.46875 212.109375 C 164.433594 212.109375 164.394531 212.101562 164.355469 212.101562 C 164.09375 212.101562 163.835938 212.167969 163.617188 212.289062 C 163.046875 212.585938 162.652344 213.210938 162.652344 213.941406 C 162.652344 214 162.652344 214.054688 162.660156 214.113281 L 162.652344 223.898438 C 162.652344 224.917969 163.40625 225.738281 164.347656 225.738281 L 173.566406 225.746094 C 174.511719 225.746094 175.273438 224.925781 175.273438 223.914062 " fill-opacity="1" fill-rule="nonzero"/><path fill="#ffffff" d="M 171.878906 178.648438 L 166.046875 178.648438 L 166.054688 172.355469 L 171.878906 172.355469 Z M 175.273438 180.488281 C 175.273438 180.480469 175.273438 180.480469 175.273438 180.480469 L 175.273438 170.515625 C 175.273438 169.503906 174.511719 168.683594 173.574219 168.683594 L 164.46875 168.683594 C 164.433594 168.683594 164.394531 168.675781 164.355469 168.675781 C 164.09375 168.675781 163.835938 168.742188 163.617188 168.863281 C 163.046875 169.160156 162.652344 169.792969 162.652344 170.515625 C 162.652344 170.574219 162.652344 170.628906 162.660156 170.6875 L 162.652344 180.480469 C 162.652344 181.492188 163.40625 182.3125 164.347656 182.3125 L 173.566406 182.320312 C 174.511719 182.320312 175.273438 181.5 175.273438 180.488281 " fill-opacity="1" fill-rule="nonzero"/><path fill="#ffffff" d="M 167.117188 159.75 L 167.117188 148.414062 C 167.117188 147.449219 167.898438 146.671875 168.855469 146.671875 L 169.066406 146.671875 C 170.023438 146.671875 170.808594 147.449219 170.808594 148.414062 L 170.808594 159.75 C 170.808594 160.707031 170.023438 161.492188 169.066406 161.492188 L 168.855469 161.492188 C 167.898438 161.492188 167.117188 160.707031 167.117188 159.75 " fill-opacity="1" fill-rule="nonzero"/><path fill="#ffffff" d="M 148.414062 138.335938 L 148.414062 126.992188 C 148.414062 126.035156 149.199219 125.257812 150.15625 125.257812 L 150.367188 125.257812 C 151.324219 125.257812 152.109375 126.035156 152.109375 126.992188 L 152.109375 138.335938 C 152.109375 139.292969 151.324219 140.078125 150.367188 140.078125 L 150.15625 140.078125 C 149.199219 140.078125 148.414062 139.292969 148.414062 138.335938 " fill-opacity="1" fill-rule="nonzero"/><path fill="#ffffff" d="M 153.179688 157.234375 L 147.351562 157.226562 L 147.351562 150.933594 L 153.179688 150.933594 Z M 156.570312 159.074219 C 156.570312 159.066406 156.570312 159.066406 156.570312 159.066406 L 156.570312 149.101562 C 156.570312 148.089844 155.808594 147.269531 154.875 147.269531 L 145.769531 147.269531 C 145.730469 147.261719 145.691406 147.261719 145.664062 147.261719 C 145.390625 147.261719 145.144531 147.328125 144.917969 147.441406 C 144.34375 147.742188 143.953125 148.367188 143.953125 149.101562 C 143.953125 149.160156 143.960938 149.214844 143.960938 149.273438 L 143.953125 159.058594 C 143.953125 160.074219 144.714844 160.890625 145.648438 160.898438 L 154.875 160.90625 C 155.808594 160.90625 156.570312 160.082031 156.570312 159.074219 " fill-opacity="1" fill-rule="nonzero"/><path fill="#ffffff" d="M 148.414062 181.167969 L 148.414062 169.828125 C 148.414062 168.871094 149.199219 168.089844 150.15625 168.089844 L 150.367188 168.089844 C 151.324219 168.089844 152.109375 168.871094 152.109375 169.828125 L 152.109375 181.167969 C 152.109375 182.132812 151.324219 182.90625 150.367188 182.90625 L 150.15625 182.90625 C 149.199219 182.90625 148.414062 182.132812 148.414062 181.167969 " fill-opacity="1" fill-rule="nonzero"/><path fill="#ffffff" d="M 148.414062 224.003906 L 148.414062 212.667969 C 148.414062 211.703125 149.199219 210.925781 150.15625 210.925781 L 150.367188 210.925781 C 151.324219 210.925781 152.109375 211.703125 152.109375 212.667969 L 152.109375 224.003906 C 152.109375 224.96875 151.324219 225.746094 150.367188 225.746094 L 150.15625 225.746094 C 149.199219 225.746094 148.414062 224.96875 148.414062 224.003906 " fill-opacity="1" fill-rule="nonzero"/><path fill="#ffffff" d="M 134.476562 135.230469 L 128.648438 135.222656 L 128.65625 128.929688 L 134.476562 128.929688 Z M 137.867188 137.0625 L 137.867188 127.089844 C 137.867188 126.078125 137.113281 125.257812 136.171875 125.257812 L 127.066406 125.257812 C 127.035156 125.257812 127 125.257812 126.960938 125.257812 C 126.699219 125.257812 126.441406 125.316406 126.214844 125.4375 C 125.648438 125.734375 125.257812 126.367188 125.257812 127.089844 C 125.257812 127.148438 125.257812 127.210938 125.265625 127.261719 L 125.257812 137.054688 C 125.25 138.066406 126.011719 138.886719 126.945312 138.886719 L 136.171875 138.894531 C 137.105469 138.894531 137.867188 138.070312 137.867188 137.0625 " fill-opacity="1" fill-rule="nonzero"/><path fill="#ffffff" d="M 134.476562 222.074219 L 128.648438 222.074219 L 128.65625 215.773438 L 134.476562 215.773438 Z M 137.867188 223.914062 C 137.867188 223.914062 137.867188 223.914062 137.867188 223.90625 L 137.867188 213.941406 C 137.867188 212.929688 137.113281 212.109375 136.171875 212.109375 L 127.066406 212.109375 C 127.035156 212.109375 127 212.101562 126.960938 212.101562 C 126.699219 212.101562 126.441406 212.167969 126.214844 212.289062 C 125.648438 212.585938 125.257812 213.210938 125.257812 213.941406 C 125.257812 214 125.257812 214.054688 125.265625 214.113281 L 125.257812 223.898438 C 125.25 224.917969 126.011719 225.738281 126.945312 225.738281 L 136.171875 225.746094 C 137.105469 225.746094 137.867188 224.925781 137.867188 223.914062 " fill-opacity="1" fill-rule="nonzero"/><path fill="#ffffff" d="M 134.476562 178.648438 L 128.648438 178.648438 L 128.65625 172.355469 L 134.476562 172.355469 Z M 137.867188 180.488281 C 137.867188 180.480469 137.867188 180.480469 137.867188 180.480469 L 137.867188 170.515625 C 137.867188 169.503906 137.113281 168.683594 136.171875 168.683594 L 127.066406 168.683594 C 127.035156 168.683594 127 168.675781 126.960938 168.675781 C 126.699219 168.675781 126.441406 168.742188 126.214844 168.863281 C 125.648438 169.160156 125.257812 169.792969 125.257812 170.515625 C 125.257812 170.574219 125.257812 170.628906 125.265625 170.6875 L 125.257812 180.480469 C 125.25 181.492188 126.011719 182.3125 126.945312 182.3125 L 136.171875 182.320312 C 137.105469 182.320312 137.867188 181.5 137.867188 180.488281 " fill-opacity="1" fill-rule="nonzero"/><path fill="#ffffff" d="M 129.71875 159.75 L 129.71875 148.414062 C 129.71875 147.449219 130.496094 146.671875 131.460938 146.671875 L 131.664062 146.671875 C 132.628906 146.671875 133.40625 147.449219 133.40625 148.414062 L 133.40625 159.75 C 133.40625 160.707031 132.628906 161.492188 131.664062 161.492188 L 131.460938 161.492188 C 130.496094 161.492188 129.71875 160.707031 129.71875 159.75 " fill-opacity="1" fill-rule="nonzero"/><path fill="#ffffff" d="M 190.574219 200.070312 L 184.746094 200.0625 L 184.753906 193.769531 L 190.574219 193.769531 Z M 193.964844 201.902344 L 193.964844 191.9375 C 193.964844 190.921875 193.210938 190.097656 192.269531 190.097656 L 183.164062 190.097656 C 183.132812 190.097656 183.097656 190.097656 183.058594 190.097656 C 182.792969 190.097656 182.539062 190.167969 182.3125 190.28125 C 181.746094 190.582031 181.355469 191.207031 181.355469 191.9375 C 181.355469 191.992188 181.355469 192.050781 181.363281 192.105469 L 181.355469 201.894531 C 181.347656 202.90625 182.109375 203.726562 183.042969 203.726562 L 192.269531 203.734375 C 193.203125 203.742188 193.964844 202.921875 193.964844 201.902344 " fill-opacity="1" fill-rule="nonzero"/><path fill="#ffffff" d="M 167.117188 202.589844 L 167.117188 191.246094 C 167.117188 190.289062 167.898438 189.511719 168.855469 189.511719 L 169.066406 189.511719 C 170.023438 189.511719 170.808594 190.289062 170.808594 191.246094 L 170.808594 202.589844 C 170.808594 203.546875 170.023438 204.332031 169.066406 204.332031 L 168.855469 204.332031 C 167.898438 204.332031 167.117188 203.546875 167.117188 202.589844 " fill-opacity="1" fill-rule="nonzero"/><path fill="#ffffff" d="M 153.179688 200.070312 L 147.351562 200.0625 L 147.351562 193.769531 L 153.179688 193.769531 Z M 156.570312 201.902344 L 156.570312 191.9375 C 156.570312 190.921875 155.808594 190.097656 154.875 190.097656 L 145.769531 190.097656 C 145.730469 190.097656 145.691406 190.097656 145.664062 190.097656 C 145.390625 190.097656 145.144531 190.167969 144.917969 190.28125 C 144.34375 190.582031 143.953125 191.207031 143.953125 191.9375 C 143.953125 191.992188 143.960938 192.050781 143.960938 192.105469 L 143.953125 201.894531 C 143.953125 202.90625 144.714844 203.726562 145.648438 203.726562 L 154.875 203.734375 C 155.808594 203.742188 156.570312 202.921875 156.570312 201.902344 " fill-opacity="1" fill-rule="nonzero"/><path fill="#ffffff" d="M 129.71875 202.589844 L 129.71875 191.246094 C 129.71875 190.289062 130.496094 189.511719 131.460938 189.511719 L 131.664062 189.511719 C 132.628906 189.511719 133.40625 190.289062 133.40625 191.246094 L 133.40625 202.589844 C 133.40625 203.546875 132.628906 204.332031 131.664062 204.332031 L 131.460938 204.332031 C 130.496094 204.332031 129.71875 203.546875 129.71875 202.589844 " fill-opacity="1" fill-rule="nonzero"/><path fill="#ffffff" d="M 190.574219 245.804688 L 184.746094 245.796875 L 184.753906 239.503906 L 190.574219 239.503906 Z M 193.964844 247.636719 C 193.964844 247.636719 193.964844 247.636719 193.964844 247.628906 L 193.964844 237.664062 C 193.964844 236.652344 193.210938 235.832031 192.269531 235.832031 L 183.164062 235.832031 C 183.132812 235.832031 183.097656 235.832031 183.058594 235.832031 C 182.792969 235.832031 182.539062 235.890625 182.3125 236.011719 C 181.746094 236.304688 181.355469 236.941406 181.355469 237.664062 C 181.355469 237.722656 181.355469 237.785156 181.363281 237.835938 L 181.355469 247.628906 C 181.347656 248.636719 182.109375 249.460938 183.042969 249.460938 L 192.269531 249.46875 C 193.203125 249.46875 193.964844 248.644531 193.964844 247.636719 " fill-opacity="1" fill-rule="nonzero"/><path fill="#ffffff" d="M 167.117188 248.320312 L 167.117188 236.976562 C 167.117188 236.019531 167.898438 235.234375 168.855469 235.234375 L 169.066406 235.234375 C 170.023438 235.234375 170.808594 236.019531 170.808594 236.976562 L 170.808594 248.320312 C 170.808594 249.277344 170.023438 250.054688 169.066406 250.054688 L 168.855469 250.054688 C 167.898438 250.054688 167.117188 249.277344 167.117188 248.320312 " fill-opacity="1" fill-rule="nonzero"/><path fill="#ffffff" d="M 153.179688 245.804688 L 147.351562 245.796875 L 147.351562 239.503906 L 153.179688 239.503906 Z M 156.570312 247.636719 C 156.570312 247.636719 156.570312 247.636719 156.570312 247.628906 L 156.570312 237.664062 C 156.570312 236.652344 155.808594 235.832031 154.875 235.832031 L 145.769531 235.832031 C 145.730469 235.832031 145.691406 235.832031 145.664062 235.832031 C 145.390625 235.832031 145.144531 235.890625 144.917969 236.011719 C 144.34375 236.304688 143.953125 236.941406 143.953125 237.664062 C 143.953125 237.722656 143.960938 237.785156 143.960938 237.835938 L 143.953125 247.628906 C 143.953125 248.636719 144.714844 249.460938 145.648438 249.460938 L 154.875 249.46875 C 155.808594 249.46875 156.570312 248.644531 156.570312 247.636719 " fill-opacity="1" fill-rule="nonzero"/><path fill="#ffffff" d="M 129.71875 248.320312 L 129.71875 236.976562 C 129.71875 236.019531 130.496094 235.234375 131.460938 235.234375 L 131.664062 235.234375 C 132.628906 235.234375 133.40625 236.019531 133.40625 236.976562 L 133.40625 248.320312 C 133.40625 249.277344 132.628906 250.054688 131.664062 250.054688 L 131.460938 250.054688 C 130.496094 250.054688 129.71875 249.277344 129.71875 248.320312 " fill-opacity="1" fill-rule="nonzero"/><path fill="#ffffff" d="M 246.664062 135.230469 L 240.835938 135.222656 L 240.84375 128.929688 L 246.664062 128.929688 Z M 250.054688 137.0625 L 250.054688 127.089844 C 250.054688 126.078125 249.300781 125.257812 248.359375 125.257812 L 239.253906 125.257812 C 239.214844 125.257812 239.1875 125.257812 239.148438 125.257812 C 238.882812 125.257812 238.628906 125.316406 238.402344 125.4375 C 237.835938 125.734375 237.445312 126.367188 237.445312 127.089844 C 237.445312 127.148438 237.445312 127.210938 237.453125 127.261719 L 237.445312 137.054688 C 237.4375 138.066406 238.199219 138.886719 239.132812 138.886719 L 248.359375 138.894531 C 249.292969 138.894531 250.054688 138.070312 250.054688 137.0625 " fill-opacity="1" fill-rule="nonzero"/><path fill="#ffffff" d="M 246.664062 222.074219 L 240.835938 222.074219 L 240.84375 215.773438 L 246.664062 215.773438 Z M 250.054688 223.914062 C 250.054688 223.914062 250.054688 223.914062 250.054688 223.90625 L 250.054688 213.941406 C 250.054688 212.929688 249.300781 212.109375 248.359375 212.109375 L 239.253906 212.109375 C 239.214844 212.109375 239.1875 212.101562 239.148438 212.101562 C 238.882812 212.101562 238.628906 212.167969 238.402344 212.289062 C 237.835938 212.585938 237.445312 213.210938 237.445312 213.941406 C 237.445312 214 237.445312 214.054688 237.453125 214.113281 L 237.445312 223.898438 C 237.4375 224.917969 238.199219 225.738281 239.132812 225.738281 L 248.359375 225.746094 C 249.292969 225.746094 250.054688 224.925781 250.054688 223.914062 " fill-opacity="1" fill-rule="nonzero"/><path fill="#ffffff" d="M 246.664062 178.648438 L 240.835938 178.648438 L 240.84375 172.355469 L 246.664062 172.355469 Z M 250.054688 180.488281 C 250.054688 180.480469 250.054688 180.480469 250.054688 180.480469 L 250.054688 170.515625 C 250.054688 169.503906 249.300781 168.683594 248.359375 168.683594 L 239.253906 168.683594 C 239.214844 168.683594 239.1875 168.675781 239.148438 168.675781 C 238.882812 168.675781 238.628906 168.742188 238.402344 168.863281 C 237.835938 169.160156 237.445312 169.792969 237.445312 170.515625 C 237.445312 170.574219 237.445312 170.628906 237.453125 170.6875 L 237.445312 180.480469 C 237.4375 181.492188 238.199219 182.3125 239.132812 182.3125 L 248.359375 182.320312 C 249.292969 182.320312 250.054688 181.5 250.054688 180.488281 " fill-opacity="1" fill-rule="nonzero"/><path fill="#ffffff" d="M 241.90625 159.75 L 241.90625 148.414062 C 241.90625 147.449219 242.683594 146.671875 243.648438 146.671875 L 243.851562 146.671875 C 244.816406 146.671875 245.59375 147.449219 245.59375 148.414062 L 245.59375 159.75 C 245.59375 160.707031 244.816406 161.492188 243.851562 161.492188 L 243.648438 161.492188 C 242.683594 161.492188 241.90625 160.707031 241.90625 159.75 " fill-opacity="1" fill-rule="nonzero"/><path fill="#ffffff" d="M 223.207031 138.335938 L 223.207031 126.992188 C 223.207031 126.035156 223.988281 125.257812 224.945312 125.257812 L 225.15625 125.257812 C 226.113281 125.257812 226.898438 126.035156 226.898438 126.992188 L 226.898438 138.335938 C 226.898438 139.292969 226.113281 140.078125 225.15625 140.078125 L 224.945312 140.078125 C 223.988281 140.078125 223.207031 139.292969 223.207031 138.335938 " fill-opacity="1" fill-rule="nonzero"/><path fill="#ffffff" d="M 227.96875 157.234375 L 222.136719 157.226562 L 222.140625 150.933594 L 227.96875 150.933594 Z M 231.363281 159.074219 C 231.363281 159.066406 231.363281 159.066406 231.363281 159.066406 L 231.363281 149.101562 C 231.363281 148.089844 230.601562 147.269531 229.664062 147.269531 L 220.558594 147.269531 C 220.523438 147.261719 220.484375 147.261719 220.445312 147.261719 C 220.183594 147.261719 219.925781 147.328125 219.707031 147.441406 C 219.136719 147.742188 218.742188 148.367188 218.742188 149.101562 C 218.742188 149.160156 218.742188 149.214844 218.75 149.273438 L 218.742188 159.058594 C 218.742188 160.074219 219.503906 160.890625 220.4375 160.898438 L 229.65625 160.90625 C 230.601562 160.90625 231.363281 160.082031 231.363281 159.074219 " fill-opacity="1" fill-rule="nonzero"/><path fill="#ffffff" d="M 223.207031 181.167969 L 223.207031 169.828125 C 223.207031 168.871094 223.988281 168.089844 224.945312 168.089844 L 225.15625 168.089844 C 226.113281 168.089844 226.898438 168.871094 226.898438 169.828125 L 226.898438 181.167969 C 226.898438 182.132812 226.113281 182.90625 225.15625 182.90625 L 224.945312 182.90625 C 223.988281 182.90625 223.207031 182.132812 223.207031 181.167969 " fill-opacity="1" fill-rule="nonzero"/><path fill="#ffffff" d="M 223.207031 224.003906 L 223.207031 212.667969 C 223.207031 211.703125 223.988281 210.925781 224.945312 210.925781 L 225.15625 210.925781 C 226.113281 210.925781 226.898438 211.703125 226.898438 212.667969 L 226.898438 224.003906 C 226.898438 224.96875 226.113281 225.746094 225.15625 225.746094 L 224.945312 225.746094 C 223.988281 225.746094 223.207031 224.96875 223.207031 224.003906 " fill-opacity="1" fill-rule="nonzero"/><path fill="#ffffff" d="M 209.269531 135.230469 L 203.441406 135.222656 L 203.441406 128.929688 L 209.269531 128.929688 Z M 212.660156 137.0625 L 212.660156 127.089844 C 212.660156 126.078125 211.898438 125.257812 210.964844 125.257812 L 201.859375 125.257812 C 201.820312 125.257812 201.78125 125.257812 201.753906 125.257812 C 201.480469 125.257812 201.230469 125.316406 201.007812 125.4375 C 200.433594 125.734375 200.042969 126.367188 200.042969 127.089844 C 200.042969 127.148438 200.050781 127.210938 200.050781 127.261719 L 200.042969 137.054688 C 200.042969 138.066406 200.800781 138.886719 201.738281 138.886719 L 210.964844 138.894531 C 211.898438 138.894531 212.660156 138.070312 212.660156 137.0625 " fill-opacity="1" fill-rule="nonzero"/><path fill="#ffffff" d="M 209.269531 222.074219 L 203.441406 222.074219 L 203.441406 215.773438 L 209.269531 215.773438 Z M 212.660156 223.914062 C 212.660156 223.914062 212.660156 223.914062 212.660156 223.90625 L 212.660156 213.941406 C 212.660156 212.929688 211.898438 212.109375 210.964844 212.109375 L 201.859375 212.109375 C 201.820312 212.109375 201.78125 212.101562 201.753906 212.101562 C 201.480469 212.101562 201.230469 212.167969 201.007812 212.289062 C 200.433594 212.585938 200.042969 213.210938 200.042969 213.941406 C 200.042969 214 200.050781 214.054688 200.050781 214.113281 L 200.042969 223.898438 C 200.042969 224.917969 200.800781 225.738281 201.738281 225.738281 L 210.964844 225.746094 C 211.898438 225.746094 212.660156 224.925781 212.660156 223.914062 " fill-opacity="1" fill-rule="nonzero"/><path fill="#ffffff" d="M 209.269531 178.648438 L 203.441406 178.648438 L 203.441406 172.355469 L 209.269531 172.355469 Z M 212.660156 180.488281 C 212.660156 180.480469 212.660156 180.480469 212.660156 180.480469 L 212.660156 170.515625 C 212.660156 169.503906 211.898438 168.683594 210.964844 168.683594 L 201.859375 168.683594 C 201.820312 168.683594 201.78125 168.675781 201.753906 168.675781 C 201.480469 168.675781 201.230469 168.742188 201.007812 168.863281 C 200.433594 169.160156 200.042969 169.792969 200.042969 170.515625 C 200.042969 170.574219 200.050781 170.628906 200.050781 170.6875 L 200.042969 180.480469 C 200.042969 181.492188 200.800781 182.3125 201.738281 182.3125 L 210.964844 182.320312 C 211.898438 182.320312 212.660156 181.5 212.660156 180.488281 " fill-opacity="1" fill-rule="nonzero"/><path fill="#ffffff" d="M 204.503906 159.75 L 204.503906 148.414062 C 204.503906 147.449219 205.289062 146.671875 206.246094 146.671875 L 206.457031 146.671875 C 207.414062 146.671875 208.199219 147.449219 208.199219 148.414062 L 208.199219 159.75 C 208.199219 160.707031 207.414062 161.492188 206.457031 161.492188 L 206.246094 161.492188 C 205.289062 161.492188 204.503906 160.707031 204.503906 159.75 " fill-opacity="1" fill-rule="nonzero"/><path fill="#ffffff" d="M 241.90625 202.589844 L 241.90625 191.246094 C 241.90625 190.289062 242.683594 189.511719 243.648438 189.511719 L 243.851562 189.511719 C 244.816406 189.511719 245.59375 190.289062 245.59375 191.246094 L 245.59375 202.589844 C 245.59375 203.546875 244.816406 204.332031 243.851562 204.332031 L 243.648438 204.332031 C 242.683594 204.332031 241.90625 203.546875 241.90625 202.589844 " fill-opacity="1" fill-rule="nonzero"/><path fill="#ffffff" d="M 227.96875 200.070312 L 222.136719 200.0625 L 222.140625 193.769531 L 227.96875 193.769531 Z M 231.363281 201.902344 L 231.363281 191.9375 C 231.363281 190.921875 230.601562 190.097656 229.664062 190.097656 L 220.558594 190.097656 C 220.523438 190.097656 220.484375 190.097656 220.445312 190.097656 C 220.183594 190.097656 219.925781 190.167969 219.707031 190.28125 C 219.136719 190.582031 218.742188 191.207031 218.742188 191.9375 C 218.742188 191.992188 218.742188 192.050781 218.75 192.105469 L 218.742188 201.894531 C 218.742188 202.90625 219.503906 203.726562 220.4375 203.726562 L 229.65625 203.734375 C 230.601562 203.742188 231.363281 202.921875 231.363281 201.902344 " fill-opacity="1" fill-rule="nonzero"/><path fill="#ffffff" d="M 204.503906 202.589844 L 204.503906 191.246094 C 204.503906 190.289062 205.289062 189.511719 206.246094 189.511719 L 206.457031 189.511719 C 207.414062 189.511719 208.199219 190.289062 208.199219 191.246094 L 208.199219 202.589844 C 208.199219 203.546875 207.414062 204.332031 206.457031 204.332031 L 206.246094 204.332031 C 205.289062 204.332031 204.503906 203.546875 204.503906 202.589844 " fill-opacity="1" fill-rule="nonzero"/><path fill="#ffffff" d="M 241.90625 248.320312 L 241.90625 236.976562 C 241.90625 236.019531 242.683594 235.234375 243.648438 235.234375 L 243.851562 235.234375 C 244.816406 235.234375 245.59375 236.019531 245.59375 236.976562 L 245.59375 248.320312 C 245.59375 249.277344 244.816406 250.054688 243.851562 250.054688 L 243.648438 250.054688 C 242.683594 250.054688 241.90625 249.277344 241.90625 248.320312 " fill-opacity="1" fill-rule="nonzero"/><path fill="#ffffff" d="M 227.96875 245.804688 L 222.136719 245.796875 L 222.140625 239.503906 L 227.96875 239.503906 Z M 231.363281 247.636719 C 231.363281 247.636719 231.363281 247.636719 231.363281 247.628906 L 231.363281 237.664062 C 231.363281 236.652344 230.601562 235.832031 229.664062 235.832031 L 220.558594 235.832031 C 220.523438 235.832031 220.484375 235.832031 220.445312 235.832031 C 220.183594 235.832031 219.925781 235.890625 219.707031 236.011719 C 219.136719 236.304688 218.742188 236.941406 218.742188 237.664062 C 218.742188 237.722656 218.742188 237.785156 218.75 237.835938 L 218.742188 247.628906 C 218.742188 248.636719 219.503906 249.460938 220.4375 249.460938 L 229.65625 249.46875 C 230.601562 249.46875 231.363281 248.644531 231.363281 247.636719 " fill-opacity="1" fill-rule="nonzero"/><path fill="#ffffff" d="M 204.503906 248.320312 L 204.503906 236.976562 C 204.503906 236.019531 205.289062 235.234375 206.246094 235.234375 L 206.457031 235.234375 C 207.414062 235.234375 208.199219 236.019531 208.199219 236.976562 L 208.199219 248.320312 C 208.199219 249.277344 207.414062 250.054688 206.457031 250.054688 L 206.246094 250.054688 C 205.289062 250.054688 204.503906 249.277344 204.503906 248.320312 " fill-opacity="1" fill-rule="nonzero"/><g clip-path="url(#9965160048)"><path fill="#ffffff" d="M 118.683594 256.628906 L 256.628906 256.628906 L 256.628906 118.683594 L 118.683594 118.683594 Z M 260.40625 260.40625 L 114.90625 260.40625 L 114.90625 114.90625 L 260.40625 114.90625 L 260.40625 260.40625 " fill-opacity="1" fill-rule="nonzero"/></g></svg>